<svg xmlns="http://www.w3.org/2000/svg" viewBox="0 0 512 512" fill="none">
  <g fill="#0A0A0C">
    <!-- Stylized AB Logo Icon -->
    <path d="M195.4 96c-11.8 0-22.3 6.9-27.2 17.5L62.8 348.5c-4.2 9.1-1.3 19.8 6.9 25.6 8.2 5.8 19.3 4.5 26.1-3l33.8-37.1h112.8l33.8 37.1c6.8 7.5 17.9 8.8 26.1 3 8.2-5.8 11.1-16.5 6.9-25.6L209.8 113.5c-4.9-10.6-15.4-17.5-27.2-17.5zm-33.6 184l33.6-73.6 33.6 73.6h-67.2z"/>
    <path d="M260 96h108c48.6 0 88 39.4 88 88 0 29.5-14.5 55.6-36.8 71.5 30.6 14.8 51.8 46.1 51.8 82.5 0 50.8-41.2 92-92 92H240c-13.3 0-24-10.7-24-24s10.7-24 24-24h139c24.3 0 44-19.7 44-44s-19.7-44-44-44H260c-13.3 0-24-10.7-24-24s10.7-24 24-24h119c22.1 0 40-17.9 40-40s-17.9-40-40-40H260c-13.3 0-24-10.7-24-24s10.7-24 24-24z"/>
    <!-- Inner triangle counter -->
    <polygon points="195.4,240 160,312 230.8,312"/>
  </g>
</svg>